<svg width="183" height="34" viewBox="0 0 183 34" fill="none" xmlns="http://www.w3.org/2000/svg">
<path d="M109.434 16.5852V26.5816H107.116V16.8261C107.116 13.213 105.164 11.4064 101.87 11.4064C101.044 11.3511 100.216 11.4731 99.4418 11.7639C98.668 12.0548 97.9672 12.5076 97.3876 13.0912C96.8079 13.6749 96.3632 14.3755 96.084 15.145C95.8048 15.9145 95.6976 16.7345 95.77 17.5488V26.5816H93.452V9.23853H95.77V12.6108C96.4442 11.5017 97.4171 10.5991 98.5803 10.0037C99.7435 9.40827 101.051 9.14338 102.358 9.23853C106.506 9.23853 109.434 11.6473 109.434 16.5852Z" fill="#48AE4D"/>
<path d="M125.904 15.8626V26.4612H123.586V23.8115C122.61 25.4977 120.536 26.5816 117.73 26.5816C114.924 26.5816 111.386 24.5342 111.386 21.6436C111.386 18.7531 113.094 16.8261 118.096 16.8261H123.464V15.7422C123.464 12.8517 121.878 11.286 118.584 11.286C116.505 11.2573 114.479 11.938 112.85 13.213L111.874 11.5269C113.853 9.99138 116.311 9.18248 118.828 9.23854C123.342 9.23854 125.904 11.4064 125.904 15.8626ZM123.464 21.2823V18.5123H118.096C114.802 18.5123 113.704 19.8371 113.704 21.5232C113.704 23.2093 115.29 24.775 118.096 24.775C119.253 24.8428 120.401 24.5393 121.368 23.9097C122.336 23.2802 123.071 22.3585 123.464 21.2823Z" fill="#48AE4D"/>
<path d="M139.08 25.4976C138.048 26.323 136.747 26.7509 135.42 26.702C132.126 26.702 130.174 24.8955 130.174 21.7641V11.1655H127.124V9.23852H130.174V5.50494H132.614V9.23852H137.982V11.1655H132.614V21.5232C132.614 23.5706 133.712 24.775 135.664 24.775C136.612 24.7937 137.531 24.4482 138.226 23.8115L139.08 25.4976Z" fill="#48AE4D"/>
<path d="M140.91 4.90278C140.91 4.45559 141.09 4.02672 141.41 3.71051C141.731 3.39429 142.165 3.21665 142.618 3.21665C143.083 3.21563 143.531 3.38934 143.871 3.70251C144.211 4.01568 144.417 4.44482 144.448 4.90278C144.449 5.13472 144.401 5.36428 144.307 5.57712C144.214 5.78995 144.077 5.98149 143.905 6.13974C143.734 6.298 143.531 6.41957 143.309 6.49685C143.088 6.57414 142.852 6.60548 142.618 6.58891C142.165 6.58891 141.731 6.41127 141.41 6.09506C141.09 5.77884 140.91 5.34997 140.91 4.90278ZM141.398 9.23855H143.838V26.5816H141.398V9.23855Z" fill="#48AE4D"/>
<path d="M146.034 17.9101C145.888 16.6937 146.005 15.4606 146.376 14.292C146.748 13.1234 147.366 12.0458 148.191 11.1302C149.015 10.2145 150.026 9.48162 151.158 8.97973C152.29 8.47784 153.516 8.21835 154.757 8.21835C155.998 8.21835 157.224 8.47784 158.356 8.97973C159.488 9.48162 160.499 10.2145 161.323 11.1302C162.148 12.0458 162.766 13.1234 163.138 14.292C163.509 15.4606 163.626 16.6937 163.48 17.9101C163.626 19.1264 163.509 20.3595 163.138 21.5281C162.766 22.6967 162.148 23.7743 161.323 24.69C160.499 25.6056 159.488 26.3385 158.356 26.8404C157.224 27.3423 155.998 27.6018 154.757 27.6018C153.516 27.6018 152.29 27.3423 151.158 26.8404C150.026 26.3385 149.015 25.6056 148.191 24.69C147.366 23.7743 146.748 22.6967 146.376 21.5281C146.005 20.3595 145.888 19.1264 146.034 17.9101ZM161.162 17.9101C161.162 13.9356 158.478 11.286 154.818 11.286C153.938 11.2491 153.06 11.3972 152.242 11.7204C151.424 12.0436 150.685 12.5345 150.074 13.1607C149.463 13.7869 148.993 14.534 148.696 15.3528C148.399 16.1715 148.282 17.0432 148.352 17.9101C148.282 18.7769 148.399 19.6486 148.696 20.4673C148.993 21.2861 149.463 22.0333 150.074 22.6595C150.685 23.2856 151.424 23.7766 152.242 24.0997C153.06 24.4229 153.938 24.571 154.818 24.5341C158.478 24.5341 161.162 21.8845 161.162 17.9101Z" fill="#48AE4D"/>
<path d="M181.78 16.5852V26.5816H179.462V16.8261C179.462 13.213 177.51 11.4064 174.216 11.4064C170.922 11.4064 168.116 13.6947 168.116 17.5488V26.5816H165.798V9.23853H167.994V12.6108C168.678 11.511 169.653 10.6161 170.814 10.0219C171.975 9.42781 173.277 9.15699 174.582 9.23853C178.852 9.23853 181.78 11.6473 181.78 16.5852Z" fill="#48AE4D"/>
<path d="M38.552 17.7896C38.5576 19.0588 38.3515 20.3202 37.942 21.5232C37.5074 22.5486 36.8873 23.4873 36.112 24.2933C35.2888 25.0812 34.2839 25.6599 33.184 25.9794C32.0203 26.4316 30.7733 26.6368 29.524 26.5816C28.2789 26.5783 27.0428 26.3749 25.864 25.9794C24.8241 25.6076 23.8701 25.0343 23.058 24.2933C22.3096 23.4666 21.6925 22.5326 21.228 21.5232C20.7601 20.3351 20.5522 19.0627 20.618 17.7896C20.5621 16.5563 20.7699 15.3252 21.228 14.1765C21.6925 13.1671 22.3096 12.2331 23.058 11.4064C23.8701 10.6654 24.8241 10.0921 25.864 9.72029C27.0276 9.26811 28.2747 9.06293 29.524 9.1181C30.7733 9.06293 32.0203 9.26811 33.184 9.72029C34.2899 10.0875 35.2929 10.7064 36.112 11.5269C36.8873 12.3329 37.5074 13.2715 37.942 14.2969C38.3424 15.4191 38.5487 16.5998 38.552 17.7896ZM26.596 17.7896C26.5186 18.9205 26.7727 20.0494 27.328 21.0415C27.5993 21.391 27.951 21.6717 28.3542 21.8602C28.7573 22.0487 29.2001 22.1396 29.646 22.1254C30.0882 22.1401 30.5262 22.0358 30.913 21.8236C31.2999 21.6115 31.621 21.2995 31.842 20.921C32.401 19.9743 32.6563 18.8825 32.574 17.7896C32.6347 16.6985 32.3809 15.6128 31.842 14.6582C31.5707 14.3087 31.2189 14.028 30.8158 13.8395C30.4126 13.651 29.9698 13.5601 29.524 13.5743C29.0936 13.5473 28.6636 13.6333 28.2778 13.8237C27.892 14.0141 27.5643 14.3021 27.328 14.6582C26.7891 15.6128 26.5353 16.6985 26.596 17.7896Z" fill="#106CAA"/>
<path d="M46.604 26.2203L45.506 26.4612H42.7L41.602 25.9794C41.3326 25.7512 41.1233 25.4619 40.992 25.1364C40.8214 24.6319 40.7389 24.1024 40.748 23.5707V2.25314H44.774C44.9529 2.24606 45.1314 2.27438 45.299 2.33643C45.4666 2.39848 45.6199 2.49301 45.75 2.61445C46.0215 2.8883 46.2296 3.21702 46.36 3.57796C46.5773 4.02749 46.6619 4.5284 46.604 5.02321V26.2203Z" fill="#106CAA"/>
<path d="M48.922 5.0232C48.9045 4.62317 48.9713 4.2239 49.1183 3.85072C49.2654 3.47753 49.4893 3.13857 49.776 2.85532C50.4194 2.30452 51.2424 2.00128 52.094 2.00128C52.9456 2.00128 53.7686 2.30452 54.412 2.85532C54.6987 3.13857 54.9226 3.47753 55.0696 3.85072C55.2166 4.2239 55.2835 4.62317 55.266 5.0232C55.2835 5.42324 55.2166 5.8225 55.0696 6.19569C54.9226 6.56887 54.6987 6.90784 54.412 7.19109C53.7686 7.74189 52.9456 8.04512 52.094 8.04512C51.2424 8.04512 50.4194 7.74189 49.776 7.19109C49.4893 6.90784 49.2654 6.56887 49.1183 6.19569C48.9713 5.8225 48.9045 5.42324 48.922 5.0232Z" fill="#EA5533"/>
<path d="M55.022 26.3407H51.118C50.9197 26.3573 50.7201 26.3338 50.5313 26.2717C50.3425 26.2096 50.1686 26.1101 50.02 25.9794C49.7232 25.7261 49.5106 25.3903 49.41 25.0159C49.2485 24.5507 49.166 24.0624 49.166 23.5706V9.23853L50.264 8.99765H53.192C53.55 9.08344 53.8837 9.24814 54.168 9.4794C54.4374 9.70762 54.6467 9.99691 54.778 10.3225C54.9396 10.7876 55.022 11.276 55.022 11.7677V26.3407Z" fill="#106CAA"/>
<path d="M67.588 13.5743C66.9995 13.5773 66.418 13.7003 65.88 13.9356C65.3861 14.0806 64.9288 14.3268 64.538 14.6583C64.1835 15.0521 63.8952 15.4993 63.684 15.9831C63.4358 16.5535 63.3112 17.1689 63.318 17.7896C63.2778 18.3678 63.3661 18.9477 63.5769 19.4886C63.7876 20.0296 64.1156 20.5185 64.538 20.921C65.3836 21.6427 66.4704 22.0289 67.588 22.005C68.1684 22.0514 68.752 21.9691 69.296 21.7641L70.638 21.2823C71.0893 21.5483 71.4666 21.9207 71.736 22.3663C71.898 22.7896 71.9806 23.2385 71.98 23.6911C71.9831 24.14 71.8592 24.5809 71.622 24.9639C71.3849 25.347 71.0441 25.657 70.638 25.859C69.5 26.4029 68.2403 26.6516 66.978 26.5816C65.6532 26.5776 64.3368 26.3745 63.074 25.9794C61.9616 25.5509 60.9305 24.9401 60.024 24.1729C59.2113 23.3717 58.5503 22.4336 58.072 21.4028C57.662 20.283 57.4555 19.1007 57.462 17.9101C57.4323 16.5892 57.6816 15.2766 58.194 14.0561C58.5964 12.9843 59.2681 12.0312 60.146 11.286C61.0018 10.5416 61.9963 9.9689 63.074 9.59986C64.2197 9.25389 65.4141 9.09124 66.612 9.11811C67.9303 9.0106 69.2503 9.30485 70.394 9.96117C70.8097 10.1832 71.1552 10.5146 71.392 10.9184C71.6289 11.3223 71.7479 11.783 71.736 12.2495C71.7739 12.6658 71.6892 13.084 71.492 13.4539L70.76 14.4174C70.3068 14.1678 69.8102 14.0044 69.296 13.9356C68.7616 13.6894 68.1776 13.5659 67.588 13.5743Z" fill="#106CAA"/>
<path d="M77.592 21.8845C77.348 21.2823 76.982 20.6801 76.738 19.9575C76.494 19.2349 76.128 18.5123 75.884 17.5488C75.64 16.5853 75.274 15.6217 74.908 14.4174C74.542 13.213 74.176 12.0086 73.81 10.4429C74.1893 10.0682 74.6475 9.78035 75.152 9.59985C75.6864 9.35361 76.2703 9.23008 76.86 9.23854C77.5774 9.25738 78.2833 9.42134 78.934 9.72029C79.5167 10.2163 79.9052 10.8981 80.032 11.6473L82.716 20.921H82.96C83.204 20.1984 83.448 19.3553 83.692 18.3918L84.424 15.6217C84.7253 14.6733 84.9698 13.7081 85.156 12.7312C85.4176 11.7806 85.6213 10.8154 85.766 9.84073C86.6077 9.45568 87.5224 9.25047 88.45 9.23854C89.1309 9.23854 89.8012 9.40399 90.402 9.72029C90.6977 9.91593 90.9335 10.1877 91.084 10.5061C91.2346 10.8245 91.294 11.1775 91.256 11.5269C91.2218 12.2539 91.1403 12.978 91.012 13.6947C90.89 14.4174 90.646 15.2604 90.402 16.2239C90.158 17.1874 89.792 18.0305 89.426 18.994L88.328 21.8845C87.9714 22.7502 87.564 23.5947 87.108 24.4137C86.742 25.2568 86.254 25.9794 85.888 26.702C85.522 27.4247 84.668 28.629 84.18 29.3517C83.712 29.9665 83.1805 30.5316 82.594 31.0378L81.008 31.8809H79.422C78.9981 31.9005 78.5746 31.8361 78.1764 31.6913C77.7783 31.5464 77.4136 31.3242 77.104 31.0378C76.8011 30.7605 76.5584 30.4254 76.3906 30.0528C76.2228 29.6801 76.1335 29.2777 76.128 28.8699L78.324 27.0634L80.276 25.0159C79.7903 24.8673 79.3637 24.5725 79.056 24.1728C78.4049 23.5245 77.9052 22.7435 77.592 21.8845Z" fill="#106CAA"/>
<path d="M17.69 13.9356C17.2582 12.8793 16.591 11.9326 15.738 11.1655C14.8473 10.433 13.807 9.89891 12.688 9.59985C11.4584 9.25565 10.1838 9.0933 8.90598 9.1181C7.7163 9.09964 6.52863 9.22093 5.36798 9.47941C4.41174 9.66933 3.50087 10.0372 2.68398 10.5634C2.25885 10.8612 1.88764 11.2276 1.58598 11.6473C1.31977 12.0818 1.19223 12.5854 1.21998 13.0925V30.1947C1.21998 30.6865 1.30243 31.1748 1.46398 31.64C1.59911 31.9298 1.80957 32.1791 2.07398 32.3626C2.3583 32.5939 2.69198 32.7586 3.04998 32.8444H5.97798L7.07598 32.6035V26.0998C7.9268 26.4435 8.84106 26.6076 9.75998 26.5816C10.966 26.588 12.1637 26.3841 13.298 25.9794C14.3429 25.6776 15.3031 25.1418 16.104 24.4137C16.882 23.6327 17.4665 22.6846 17.812 21.6436C18.2799 20.4556 18.4878 19.1831 18.422 17.9101C18.4615 16.5493 18.2122 15.1955 17.69 13.9356Z" fill="#106CAA"/>
<path d="M12.078 20.5597C11.4209 21.3264 10.6372 21.9779 9.76003 22.4867C9.76003 22.6071 9.63803 22.6071 9.63803 22.4867C8.67805 21.9594 7.84375 21.235 7.19134 20.3624C6.53894 19.4898 6.08361 18.4893 5.85603 17.4283C5.69364 16.5953 5.65255 15.7436 5.73403 14.8991C7.16131 14.8561 8.53405 14.348 9.63803 13.4539L10.37 13.9356C11.3404 14.4884 12.4247 14.8177 13.542 14.8991H13.664C13.8184 16.9107 13.2576 18.9124 12.078 20.5597Z" fill="white"/>
<path d="M12.444 20.921C11.7344 21.9044 10.8191 22.7259 9.76001 23.3298H9.51601C8.43076 22.6609 7.49328 21.7829 6.75961 20.7482C6.02594 19.7136 5.51114 18.5434 5.24601 17.3079C4.97904 16.3274 4.89634 15.3069 5.00201 14.2969V14.2969C6.71596 14.259 8.35991 13.6184 9.63801 12.4904L10.492 13.0925C11.5735 13.8096 12.8493 14.1874 14.152 14.1765H14.396C14.5919 16.5836 13.8985 18.9794 12.444 20.921V20.921Z" stroke="white" stroke-width="0.25" stroke-miterlimit="10"/>
</svg>
